<svg width="500" height="500" viewBox="0 0 500 500"><path d="M 480 250 A 230 230 0 0 1 460.09912 343.5861" fill="none" stroke="hsla(241, 50%, 50%, 1)" stroke-width="20" /><path d="M 460.11545 343.54944 A 230 230 0 0 1 403.8702 420.95016" fill="none" stroke="hsla(51, 50%, 50%, 1)" stroke-width="20" /><path d="M 403.90002 420.92334 A 230 230 0 0 1 321.0357 468.7554" fill="none" stroke="hsla(124, 50%, 50%, 1)" stroke-width="20" /><path d="M 321.0739 468.743 A 230 230 0 0 1 225.91852 478.73584" fill="none" stroke="hsla(51, 50%, 50%, 1)" stroke-width="20" /><path d="M 225.95844 478.74005 A 230 230 0 0 1 134.96524 449.16577" fill="none" stroke="hsla(241, 50%, 50%, 1)" stroke-width="20" /><path d="M 134.99998 449.18585 A 230 230 0 0 1 25.034393 202.14108" fill="none" stroke="hsla(0, 50%, 50%, 1)" stroke-width="20" /><path d="M 25.026062 202.1803 A 230 230 0 0 1 63.949677 114.77695" fill="none" stroke="hsla(124, 50%, 50%, 1)" stroke-width="20" /><path d="M 63.92607 114.80942 A 230 230 0 0 1 135.03479 50.794083" fill="none" stroke="hsla(51, 50%, 50%, 1)" stroke-width="20" /><path d="M 135.00003 50.814148 A 230 230 0 0 1 225.9984 21.255768" fill="none" stroke="hsla(241, 50%, 50%, 1)" stroke-width="20" /><path d="M 225.95848 21.259964 A 230 230 0 0 1 321.11212 31.26941" fill="none" stroke="hsla(51, 50%, 50%, 1)" stroke-width="20" /><path d="M 321.07394 31.257004 A 230 230 0 0 1 403.92987 79.10358" fill="none" stroke="hsla(0, 50%, 50%, 1)" stroke-width="20" /><path d="M 403.9001 79.076706 A 230 230 0 0 1 460.13177 156.48727" fill="none" stroke="hsla(51, 50%, 50%, 1)" stroke-width="20" /><path d="M 460.11548 156.4506 A 230 230 0 0 1 480 250.04018" fill="none" stroke="hsla(124, 50%, 50%, 1)" stroke-width="20" /></svg>
